<svg width="154" height="177" viewBox="0 0 154 177" fill="none" xmlns="http://www.w3.org/2000/svg">
<path d="M119.381 169.825L148.279 136.915C151.44 133.316 149.46 126.957 143.86 122.711C138.261 118.464 131.16 117.938 128 121.536L99.1011 154.447C95.941 158.046 97.9203 164.404 103.52 168.651C109.12 172.897 116.221 173.423 119.381 169.825Z" fill="white"/>
<path d="M88.6197 169.946L59.7208 137.036C56.5607 133.437 58.3959 127.188 63.8181 123.076C69.2403 118.964 76.1968 118.547 79.357 122.145L108.256 155.056C111.416 158.655 109.581 164.904 104.158 169.016C98.7363 173.128 91.779 173.544 88.6197 169.946Z" fill="white"/>
<path d="M86 82.3449L86 166.655C86 171.265 93.8353 175 103.5 175C113.165 175 121 171.265 121 166.655L121 82.3449C121 77.7352 113.165 74 103.5 74C93.8353 74 86 77.7363 86 82.3449V82.3449Z" fill="white"/>
<path d="M116.365 165.65L140.319 136.295C142.939 133.085 142.46 128.361 139.25 125.742C136.041 123.123 131.317 123.601 128.697 126.811L104.743 156.166C102.123 159.376 102.603 164.1 105.812 166.719C109.021 169.338 113.746 168.859 116.365 165.65Z" fill="#225F94"/>
<path d="M90.696 165.65L66.7416 136.295C64.1222 133.085 64.6015 128.361 67.8108 125.742C71.02 123.123 75.7443 123.601 78.3638 126.811L102.318 156.166C104.938 159.376 104.458 164.1 101.249 166.719C98.0397 169.338 93.3148 168.859 90.696 165.65Z" fill="#225F94"/>
<path d="M90.001 87.436L90.001 162.564C90.001 166.672 96.0454 170 103.501 170C110.957 170 117.001 166.672 117.001 162.564L117.001 87.436C117.001 83.3284 110.957 80 103.501 80C96.0454 80 90.001 83.3294 90.001 87.436V87.436Z" fill="#225F94"/>
<path d="M65.3805 6.63604L94.2794 39.5465C97.4395 43.1454 95.4602 49.5041 89.8604 53.7505C84.2606 57.997 77.1601 58.5236 74 54.9248L45.1011 22.0143C41.941 18.4155 43.9203 12.0568 49.5201 7.81031C55.1199 3.56386 62.2211 3.0381 65.3805 6.63604Z" fill="white"/>
<path d="M34.6197 6.51488L5.72079 39.4254C2.56066 43.0242 4.39595 49.2737 9.81815 53.3855C15.2403 57.4972 22.1968 57.9147 25.357 54.3159L54.2558 21.4054C57.416 17.8066 55.5807 11.557 50.1585 7.44526C44.7363 3.3335 37.779 2.91693 34.6197 6.51488Z" fill="white"/>
<path d="M32 94.1163L32 9.80614C32 5.19642 39.8353 1.46124 49.5 1.46124C59.1647 1.46124 67 5.19642 67 9.80614L67 94.1163C67 98.7261 59.1647 102.461 49.5 102.461C39.8353 102.461 32 98.7249 32 94.1163V94.1163Z" fill="white"/>
<path d="M62.365 10.8111L86.3194 40.1663C88.9388 43.3764 88.4595 48.1005 85.2503 50.7193C82.041 53.3381 77.3167 52.8602 74.6973 49.6502L50.7429 20.295C48.1235 17.085 48.6028 12.3608 51.812 9.74199C55.0213 7.12318 59.7462 7.60187 62.365 10.8111Z" fill="#9B3B3B"/>
<path d="M36.696 10.8111L12.7416 40.1663C10.1222 43.3764 10.6015 48.1005 13.8108 50.7193C17.02 53.3381 21.7443 52.8602 24.3638 49.6502L48.3181 20.295C50.9376 17.085 50.4583 12.3608 47.249 9.74199C44.0397 7.12318 39.3148 7.60187 36.696 10.8111Z" fill="#9B3B3B"/>
<path d="M36.001 89.0252L36.001 13.8973C36.001 9.78962 42.0454 6.46124 49.501 6.46124C56.9566 6.46124 63.001 9.78962 63.001 13.8973L63.001 89.0252C63.001 93.1329 56.9566 96.4612 49.501 96.4612C42.0454 96.4612 36.001 93.1319 36.001 89.0252V89.0252Z" fill="#9B3B3B"/>
</svg>
